<?xml version="1.0" encoding="UTF-8"?>
<!DOCTYPE svg PUBLIC "-//W3C//DTD SVG 1.1//EN" "http://www.w3.org/Graphics/SVG/1.1/DTD/svg11.dtd">
<svg xmlns="http://www.w3.org/2000/svg" version="1.1" width="1024px" height="918px" style="shape-rendering:geometricPrecision; text-rendering:geometricPrecision; image-rendering:optimizeQuality; fill-rule:evenodd; clip-rule:evenodd" xmlns:xlink="http://www.w3.org/1999/xlink">
<g><path style="opacity:1" fill="#fefefe" d="M -0.5,-0.5 C 340.833,-0.5 682.167,-0.5 1023.5,-0.5C 1023.5,305.5 1023.5,611.5 1023.5,917.5C 682.167,917.5 340.833,917.5 -0.5,917.5C -0.5,611.5 -0.5,305.5 -0.5,-0.5 Z"/></g>
<g><path style="opacity:1" fill="#01d31f" d="M 482.5,81.5 C 605.088,74.0629 708.255,114.73 792,203.5C 869.331,294.547 897.664,399.214 877,517.5C 857.687,604.068 813.853,675.235 745.5,731C 652.374,802.359 548.041,826.359 432.5,803C 325.903,776.685 244.737,716.519 189,622.5C 139.671,530.932 130.005,435.265 160,335.5C 203.31,210.523 288.476,129.689 415.5,93C 437.681,87.4306 460.014,83.5972 482.5,81.5 Z"/></g>
<g><path style="opacity:1" fill="#fefefe" d="M 492.5,138.5 C 597.458,133.922 684.624,170.589 754,248.5C 826.25,340.538 843.583,442.205 806,553.5C 767.191,648.64 698.691,711.473 600.5,742C 492.169,769.577 394.836,748.243 308.5,678C 227.026,604.617 192.192,513.117 204,403.5C 220.193,303.526 271.693,228.026 358.5,177C 400.452,154.289 445.119,141.455 492.5,138.5 Z"/></g>
<g><path style="opacity:1" fill="#643e01" d="M 674.5,271.5 C 675.346,277.967 672.679,281.967 666.5,283.5C 663.5,283.5 660.5,283.5 657.5,283.5C 656.609,282.89 655.609,282.557 654.5,282.5C 651.156,281.492 647.823,280.492 644.5,279.5C 635.275,275.109 628.608,268.276 624.5,259C 609.823,254.105 597.156,246.271 586.5,235.5C 585.053,229.451 587.386,225.951 593.5,225C 615.395,223.965 635.395,229.632 653.5,242C 658.167,245.333 662.833,248.667 667.5,252C 671.912,257.734 674.245,264.234 674.5,271.5 Z"/></g>
<g><path style="opacity:1" fill="#a3c90f" d="M 586.5,235.5 C 597.156,246.271 609.823,254.105 624.5,259C 628.608,268.276 635.275,275.109 644.5,279.5C 642.779,281.694 640.445,282.861 637.5,283C 633.446,283.694 629.446,283.527 625.5,282.5C 622.589,282.04 619.922,281.04 617.5,279.5C 611.371,276.797 605.371,273.797 599.5,270.5C 598.205,269.512 596.872,268.512 595.5,267.5C 591.458,263.46 587.791,259.127 584.5,254.5C 584.33,248.033 584.996,241.7 586.5,235.5 Z"/></g>
<g><path style="opacity:1" fill="#dee30a" d="M 584.5,254.5 C 587.791,259.127 591.458,263.46 595.5,267.5C 594.344,271.123 593.344,274.789 592.5,278.5C 591.25,278.423 590.417,277.756 590,276.5C 589.667,276.833 589.333,277.167 589,277.5C 588.276,275.041 586.943,274.041 585,274.5C 584.585,272.709 583.585,271.376 582,270.5C 580.708,271.791 579.542,271.791 578.5,270.5C 580.325,265.014 582.325,259.681 584.5,254.5 Z"/></g>
<g><path style="opacity:1" fill="#d8e40e" d="M 599.5,270.5 C 605.371,273.797 611.371,276.797 617.5,279.5C 617.344,286.237 616.677,292.903 615.5,299.5C 614.766,298.122 614.099,296.622 613.5,295C 609.862,294.542 606.362,293.042 603,290.5C 602.333,291.833 601.667,291.833 601,290.5C 600.185,292.551 599.352,293.884 598.5,294.5C 599.166,286.517 599.499,278.517 599.5,270.5 Z"/></g>
<g><path style="opacity:1" fill="#d9e40d" d="M 644.5,279.5 C 647.823,280.492 651.156,281.492 654.5,282.5C 653.116,283.801 651.616,283.801 650,282.5C 650.291,286.774 650.457,291.107 650.5,295.5C 649.733,294.828 649.066,293.995 648.5,293C 645.905,293.131 643.405,292.964 641,292.5C 639.108,293.13 637.441,294.13 636,295.5C 633.789,295.377 631.622,295.377 629.5,295.5C 628.818,296.243 628.151,296.909 627.5,297.5C 625.959,292.636 625.292,287.636 625.5,282.5C 629.446,283.527 633.446,283.694 637.5,283C 640.445,282.861 642.779,281.694 644.5,279.5 Z"/></g>
<g><path style="opacity:1" fill="#fed901" d="M 578.5,270.5 C 579.542,271.791 580.708,271.791 582,270.5C 583.585,271.376 584.585,272.709 585,274.5C 586.943,274.041 588.276,275.041 589,277.5C 589.333,277.167 589.667,276.833 590,276.5C 590.417,277.756 591.25,278.423 592.5,278.5C 585.721,296.06 578.387,313.393 570.5,330.5C 548.685,353.479 525.685,375.313 501.5,396C 480.282,413.113 457.282,427.447 432.5,439C 409.721,448.278 386.054,453.611 361.5,455C 326.839,456.858 292.505,454.358 258.5,447.5C 257.006,447.709 255.839,448.376 255,449.5C 254.86,452.981 255.027,456.481 255.5,460C 255.7,462.866 255.033,465.366 253.5,467.5C 253.05,459.031 253.716,450.698 255.5,442.5C 255.828,439.499 254.828,437.166 252.5,435.5C 259.616,429.28 267.949,425.78 277.5,425C 296.48,423.864 315.48,423.197 334.5,423C 362.093,422.352 387.76,415.019 411.5,401C 455.424,373.082 497.09,342.082 536.5,308C 546.5,301.333 556.5,294.667 566.5,288C 571.174,282.516 575.174,276.683 578.5,270.5 Z"/></g>
<g><path style="opacity:1" fill="#eae302" d="M 615.5,299.5 C 615.5,302.167 615.5,304.833 615.5,307.5C 614.683,309.969 614.183,312.635 614,315.5C 613.506,313.866 613.34,312.199 613.5,310.5C 612.178,310.67 611.011,310.337 610,309.5C 609.309,311.891 608.309,311.891 607,309.5C 606.667,309.833 606.333,310.167 606,310.5C 604.055,309.137 601.888,308.303 599.5,308C 597.329,306.826 596.329,304.993 596.5,302.5C 596.963,299.67 597.629,297.003 598.5,294.5C 599.352,293.884 600.185,292.551 601,290.5C 601.667,291.833 602.333,291.833 603,290.5C 606.362,293.042 609.862,294.542 613.5,295C 614.099,296.622 614.766,298.122 615.5,299.5 Z"/></g>
<g><path style="opacity:1" fill="#e3ce06" d="M 674.5,271.5 C 677.464,281.096 681.797,290.096 687.5,298.5C 685.516,298.617 683.85,297.95 682.5,296.5C 681.849,300.529 679.682,301.195 676,298.5C 675.283,299.044 674.783,299.711 674.5,300.5C 670.942,295.738 667.609,290.738 664.5,285.5C 665.729,284.719 667.062,284.219 668.5,284C 667.906,283.536 667.239,283.369 666.5,283.5C 672.679,281.967 675.346,277.967 674.5,271.5 Z"/></g>
<g><path style="opacity:1" fill="#fbe901" d="M 657.5,283.5 C 660.5,283.5 663.5,283.5 666.5,283.5C 667.239,283.369 667.906,283.536 668.5,284C 667.062,284.219 665.729,284.719 664.5,285.5C 667.609,290.738 670.942,295.738 674.5,300.5C 677.741,305.976 681.241,311.309 685,316.5C 688.679,322.852 691.512,329.519 693.5,336.5C 691.461,337.578 689.294,338.578 687,339.5C 686.302,342.004 685.469,344.337 684.5,346.5C 683.474,340.729 681.974,335.062 680,329.5C 674.652,319.468 669.319,309.468 664,299.5C 662.122,293.916 659.955,288.583 657.5,283.5 Z"/></g>
<g><path style="opacity:1" fill="#fae906" d="M 650.5,295.5 C 651.687,298.946 652.354,302.613 652.5,306.5C 653.031,315.623 654.365,324.623 656.5,333.5C 651.542,334.722 646.709,337.055 642,340.5C 640.493,339.465 638.993,339.632 637.5,341C 635.333,344.5 633.167,348 631,351.5C 630.536,350.906 630.369,350.239 630.5,349.5C 631.008,332.065 630.008,314.732 627.5,297.5C 628.151,296.909 628.818,296.243 629.5,295.5C 631.622,295.377 633.789,295.377 636,295.5C 637.441,294.13 639.108,293.13 641,292.5C 643.405,292.964 645.905,293.131 648.5,293C 649.066,293.995 649.733,294.828 650.5,295.5 Z"/></g>
<g><path style="opacity:1" fill="#fee802" d="M 596.5,302.5 C 596.329,304.993 597.329,306.826 599.5,308C 601.888,308.303 604.055,309.137 606,310.5C 606.333,310.167 606.667,309.833 607,309.5C 608.309,311.891 609.309,311.891 610,309.5C 611.011,310.337 612.178,310.67 613.5,310.5C 613.34,312.199 613.506,313.866 614,315.5C 614.183,312.635 614.683,309.969 615.5,307.5C 615.5,310.5 615.5,313.5 615.5,316.5C 614.823,321.801 614.323,327.134 614,332.5C 606.868,348.736 600.035,365.069 593.5,381.5C 586.967,394.897 580.134,408.231 573,421.5C 556.141,448.695 533.307,469.195 504.5,483C 471.251,495.562 436.917,503.562 401.5,507C 368.82,509.056 336.153,511.223 303.5,513.5C 303.5,516.5 303.5,519.5 303.5,522.5C 303.539,525.089 302.539,527.089 300.5,528.5C 303.28,520.456 303.113,512.456 300,504.5C 298.106,501.156 295.273,499.822 291.5,500.5C 297.871,497.478 304.205,494.145 310.5,490.5C 321.01,486.896 331.677,483.729 342.5,481C 363.101,478.175 383.767,476.008 404.5,474.5C 453.732,469.367 494.232,448.033 526,410.5C 542.407,389.365 557.074,367.031 570,343.5C 579.867,330.416 588.7,316.749 596.5,302.5 Z"/></g>
<g><path style="opacity:1" fill="#fecf01" d="M 652.5,306.5 C 662.143,321.103 671.31,336.103 680,351.5C 693.531,380.118 697.864,410.118 693,441.5C 687.446,491.785 665.279,532.952 626.5,565C 598.064,588.061 566.398,605.727 531.5,618C 529.574,618.422 528.574,619.589 528.5,621.5C 526.11,622.891 524.443,624.891 523.5,627.5C 498.631,637.134 472.964,640.3 446.5,637C 421.462,632.084 400.462,620.251 383.5,601.5C 384.5,601.5 385.5,601.5 386.5,601.5C 386.369,602.239 386.536,602.906 387,603.5C 388.955,602.547 390.622,601.213 392,599.5C 392.716,596.28 393.883,593.28 395.5,590.5C 396.396,593.63 398.563,596.296 402,598.5C 403.558,597.655 404.558,598.321 405,600.5C 405.333,600.167 405.667,599.833 406,599.5C 413.041,601.761 420.374,604.094 428,606.5C 428.333,606.167 428.667,605.833 429,605.5C 432.267,605.895 435.267,606.895 438,608.5C 438.561,607.978 439.228,607.645 440,607.5C 447.018,609.345 453.684,610.345 460,610.5C 461.818,608.355 463.318,608.355 464.5,610.5C 466.806,610.354 469.139,610.021 471.5,609.5C 472.192,610.025 472.692,610.692 473,611.5C 474.113,610.289 475.28,610.289 476.5,611.5C 477.167,610.833 477.833,610.167 478.5,609.5C 480.602,609.479 482.768,609.813 485,610.5C 486.441,609.74 487.941,609.074 489.5,608.5C 495.33,609.235 500.997,609.235 506.5,608.5C 507.197,606.615 508.197,606.282 509.5,607.5C 510.478,607.023 511.311,606.357 512,605.5C 513.268,605.616 514.602,605.949 516,606.5C 518.427,604.254 521.094,603.588 524,604.5C 524.317,602.699 524.984,602.366 526,603.5C 529.166,602.401 532.333,601.234 535.5,600C 536.667,599.5 537.5,598.667 538,597.5C 549.045,595.829 559.378,591.829 569,585.5C 570.667,585.5 572.333,585.5 574,585.5C 574.374,584.584 574.874,583.75 575.5,583C 578.938,582.08 581.938,580.413 584.5,578C 585.449,577.383 586.282,577.549 587,578.5C 589.043,576.792 590.71,574.792 592,572.5C 592.85,573.424 593.85,573.424 595,572.5C 597.839,570.995 600.005,568.828 601.5,566C 604.582,564.591 607.415,562.758 610,560.5C 610.914,561.654 611.747,561.487 612.5,560C 611.833,559.667 611.167,559.333 610.5,559C 617.214,555.95 622.714,551.45 627,545.5C 632.371,540.608 637.704,534.942 643,528.5C 644.559,526.783 645.392,524.783 645.5,522.5C 646.552,522.649 647.552,522.483 648.5,522C 648.167,521.667 647.833,521.333 647.5,521C 649.972,518.128 652.305,515.128 654.5,512C 653.655,510.442 654.321,509.442 656.5,509C 656.167,508.667 655.833,508.333 655.5,508C 659.054,500.154 663.054,492.154 667.5,484C 667.5,482.333 667.5,480.667 667.5,479C 668.167,478.667 668.833,478.333 669.5,478C 669.684,475.724 669.684,473.39 669.5,471C 670.097,468.463 671.43,466.463 673.5,465C 672.833,463.333 672.167,461.667 671.5,460C 673.545,456.616 674.212,453.116 673.5,449.5C 674.999,443.982 676.332,438.148 677.5,432C 677.167,429.667 676.833,427.333 676.5,425C 677.167,424.333 677.833,423.667 678.5,423C 677.183,412.992 677.183,402.992 678.5,393C 676.285,391.057 676.285,389.391 678.5,388C 677.833,387.667 677.167,387.333 676.5,387C 676.357,384.959 676.691,382.792 677.5,380.5C 677.023,379.522 676.357,378.689 675.5,378C 676.715,374.738 676.715,371.072 675.5,367C 673.438,363.205 672.272,359.038 672,354.5C 671.667,354.833 671.333,355.167 671,355.5C 669.295,350.412 667.128,346.246 664.5,343C 663.552,342.517 662.552,342.351 661.5,342.5C 661.762,341.022 661.429,339.689 660.5,338.5C 659.831,340.631 659.165,342.631 658.5,344.5C 657.992,340.803 657.326,337.136 656.5,333.5C 654.365,324.623 653.031,315.623 652.5,306.5 Z"/></g>
<g><path style="opacity:1" fill="#fedd02" d="M 687.5,298.5 C 695.908,311.909 706.908,322.576 720.5,330.5C 751.601,373.526 764.434,422.193 759,476.5C 749.993,555.073 710.827,612.573 641.5,649C 622.237,658.399 601.903,663.233 580.5,663.5C 565.139,663.844 550.805,660.51 537.5,653.5C 538.627,652.878 539.627,652.045 540.5,651C 540.5,649.667 540.5,648.333 540.5,647C 541.328,646.085 542.328,645.419 543.5,645C 542.24,643.186 542.24,641.353 543.5,639.5C 544.478,639.977 545.311,640.643 546,641.5C 550.068,641.263 554.234,641.097 558.5,641C 559,640.5 559.5,640 560,639.5C 561.674,641.009 563.34,641.676 565,641.5C 565.915,640.672 566.581,639.672 567,638.5C 570.085,641.119 573.252,641.119 576.5,638.5C 578.602,638.479 580.768,638.813 583,639.5C 583.667,638.833 584.333,638.167 585,637.5C 588.361,637.756 592.027,637.756 596,637.5C 596.945,637.095 597.612,636.428 598,635.5C 599.716,635.411 601.549,635.744 603.5,636.5C 604.696,636.154 604.696,635.654 603.5,635C 605.888,634.697 608.055,633.863 610,632.5C 612.186,631.978 614.519,631.978 617,632.5C 620.123,630.267 623.456,628.267 627,626.5C 634.559,625.502 641.226,622.168 647,616.5C 648.84,617.833 649.34,617.666 648.5,616C 655.104,613.188 661.438,609.188 667.5,604C 668.449,603.383 669.282,603.549 670,604.5C 679.161,593.706 688.328,583.539 697.5,574C 697.167,573.667 696.833,573.333 696.5,573C 698.167,570.667 699.833,568.333 701.5,566C 701.167,565.667 700.833,565.333 700.5,565C 702.886,564.716 703.552,563.716 702.5,562C 706.678,557.635 709.178,552.802 710,547.5C 711.84,548.833 712.34,548.666 711.5,547C 713.833,542.333 716.167,537.667 718.5,533C 718.167,532.667 717.833,532.333 717.5,532C 719.664,528.253 721.997,524.587 724.5,521C 724.167,520 723.833,519 723.5,518C 726.311,513.681 728.311,509.348 729.5,505C 729.745,503.089 729.745,501.089 729.5,499C 731.525,497.806 731.859,496.306 730.5,494.5C 731.88,490.707 733.213,486.874 734.5,483C 733.808,478.174 733.808,473.174 734.5,468C 736.527,466.604 736.86,464.938 735.5,463C 738.167,461.667 738.167,460.333 735.5,459C 736.167,457.333 736.833,455.667 737.5,454C 736.475,451.271 736.475,448.271 737.5,445C 736.692,444.692 736.025,444.192 735.5,443.5C 736.131,439.966 736.798,436.466 737.5,433C 736.833,432.667 736.167,432.333 735.5,432C 735.754,425.761 735.754,419.261 735.5,412.5C 733.438,410.908 733.105,409.075 734.5,407C 733.87,405.108 732.87,403.441 731.5,402C 732.167,401.667 732.833,401.333 733.5,401C 732.291,397.963 731.457,394.796 731,391.5C 730.346,392.696 729.846,392.696 729.5,391.5C 729.805,386.699 728.805,382.033 726.5,377.5C 726.413,375.037 726.413,372.537 726.5,370C 724.321,369.558 723.655,368.558 724.5,367C 721.179,359.124 717.179,351.291 712.5,343.5C 710.258,341.461 707.758,339.795 705,338.5C 702.637,337.768 700.137,337.768 697.5,338.5C 697.737,339.791 697.404,340.791 696.5,341.5C 695.737,339.632 694.737,337.965 693.5,336.5C 691.512,329.519 688.679,322.852 685,316.5C 681.241,311.309 677.741,305.976 674.5,300.5C 674.783,299.711 675.283,299.044 676,298.5C 679.682,301.195 681.849,300.529 682.5,296.5C 683.85,297.95 685.516,298.617 687.5,298.5 Z"/></g>
<g><path style="opacity:1" fill="#fdc903" d="M 720.5,330.5 C 748.919,344.092 767.419,366.092 776,396.5C 788.264,445.952 786.597,494.952 771,543.5C 762.344,566.46 750.011,587.127 734,605.5C 724.833,614.667 715.667,623.833 706.5,633C 688.936,648.29 669.269,660.29 647.5,669C 606.409,684.98 568.409,679.813 533.5,653.5C 534.833,652.167 536.167,652.167 537.5,653.5C 550.805,660.51 565.139,663.844 580.5,663.5C 601.903,663.233 622.237,658.399 641.5,649C 710.827,612.573 749.993,555.073 759,476.5C 764.434,422.193 751.601,373.526 720.5,330.5 Z"/></g>
<g><path style="opacity:1" fill="#fed000" d="M 615.5,316.5 C 618.815,321.796 621.648,327.462 624,333.5C 622.411,365.11 616.078,395.777 605,425.5C 582.802,472.031 548.302,506.198 501.5,528C 454.27,550.939 404.603,558.605 352.5,551C 344.37,549.967 336.37,548.301 328.5,546C 316.932,541.85 305.932,537.35 295.5,532.5C 297.167,531.167 298.833,529.833 300.5,528.5C 302.539,527.089 303.539,525.089 303.5,522.5C 305.045,527.338 307.878,529.004 312,527.5C 314.543,529.105 317.209,530.438 320,531.5C 323.333,532.833 326.667,532.833 330,531.5C 331.676,532.061 333.009,533.061 334,534.5C 334.667,533.833 335.333,533.167 336,532.5C 337.333,533.833 338.667,533.833 340,532.5C 341.58,534.797 343.58,535.131 346,533.5C 347.261,533.759 348.261,534.426 349,535.5C 351.393,533.633 353.893,532.966 356.5,533.5C 358.35,534.242 359.016,535.242 358.5,536.5C 359.243,535.092 360.077,533.759 361,532.5C 361.617,533.449 361.451,534.282 360.5,535C 361.667,535.5 362.5,536.333 363,537.5C 367.849,534.382 372.849,534.048 378,536.5C 378.333,535.833 378.667,535.167 379,534.5C 380.549,537.003 382.216,537.003 384,534.5C 385.667,537.167 387.333,537.167 389,534.5C 390.32,536.583 391.654,536.249 393,533.5C 393.333,534.167 393.667,534.833 394,535.5C 396.851,534.756 399.517,534.756 402,535.5C 404.374,532.712 405.707,533.046 406,536.5C 406.308,535.692 406.808,535.025 407.5,534.5C 409.745,534.255 412.078,534.255 414.5,534.5C 415.682,532.355 417.182,532.355 419,534.5C 420.667,533.167 422.333,533.167 424,534.5C 425.993,533.328 427.993,532.328 430,531.5C 430.333,532.167 430.667,532.833 431,533.5C 434.601,529.723 438.601,528.723 443,530.5C 445.281,528.411 447.781,527.745 450.5,528.5C 450.109,527.109 450.942,526.109 453,525.5C 453.308,526.308 453.808,526.975 454.5,527.5C 454.109,526.109 454.942,525.109 457,524.5C 457.667,525.167 458.333,525.833 459,526.5C 463.651,524.329 467.984,522.329 472,520.5C 472.667,523.167 473.333,523.167 474,520.5C 475,520.833 476,521.167 477,521.5C 478.097,518.735 480.097,517.069 483,516.5C 483.333,517.167 483.667,517.833 484,518.5C 485.625,515.853 487.959,514.186 491,513.5C 491.333,514.167 491.667,514.833 492,515.5C 493.768,513.608 495.768,511.941 498,510.5C 498.772,510.645 499.439,510.978 500,511.5C 501,510.167 502,508.833 503,507.5C 503.667,510.167 504.333,510.167 505,507.5C 506,507.5 507,507.5 508,507.5C 511.924,504.211 516.424,501.877 521.5,500.5C 521.533,499.011 522.033,497.678 523,496.5C 528.691,494.734 534.191,491.901 539.5,488C 536.151,487.911 535.651,486.744 538,484.5C 539.309,486.891 540.309,486.891 541,484.5C 541.333,485.167 541.667,485.833 542,486.5C 543.323,484.161 544.823,481.995 546.5,480C 546.167,479.667 545.833,479.333 545.5,479C 549.878,477.654 552.211,474.988 552.5,471C 554.259,468.729 556.259,467.729 558.5,468C 558.167,467.667 557.833,467.333 557.5,467C 559.32,466.021 560.487,464.521 561,462.5C 564.11,463.673 564.277,463.173 561.5,461C 563.246,460.529 564.913,459.862 566.5,459C 567.079,457.575 567.079,455.908 566.5,454C 568.028,451.76 570.028,450.093 572.5,449C 571.978,448.439 571.645,447.772 571.5,447C 573.084,445.165 574.417,443.165 575.5,441C 575.043,440.586 574.709,440.086 574.5,439.5C 575.689,438.571 577.022,438.238 578.5,438.5C 578.421,437.07 578.754,435.736 579.5,434.5C 578.975,433.808 578.308,433.308 577.5,433C 579.333,432.5 580.5,431.333 581,429.5C 582.666,430.34 582.833,429.84 581.5,428C 582.449,427.383 583.282,427.549 584,428.5C 584.707,426.919 585.54,425.419 586.5,424C 585.366,422.984 585.699,422.317 587.5,422C 584.833,421.333 584.833,420.667 587.5,420C 587.167,419.667 586.833,419.333 586.5,419C 586.996,417.004 587.996,415.337 589.5,414C 588.009,411.978 588.342,410.312 590.5,409C 586.551,408.193 586.551,407.693 590.5,407.5C 590.335,405.173 589.669,403.007 588.5,401C 589.784,400.316 590.951,400.483 592,401.5C 591.04,398.755 592.207,397.255 595.5,397C 594.14,395.062 594.473,393.396 596.5,392C 595.167,391 595.167,390 596.5,389C 595.692,388.692 595.025,388.192 594.5,387.5C 594.833,385.5 595.167,383.5 595.5,381.5C 595.03,380.537 594.363,380.537 593.5,381.5C 600.035,365.069 606.868,348.736 614,332.5C 614.323,327.134 614.823,321.801 615.5,316.5 Z"/></g>
<g><path style="opacity:1" fill="#fdca00" d="M 570.5,330.5 C 568.699,335.449 566.866,340.449 565,345.5C 538.261,390.239 502.761,426.406 458.5,454C 440.88,462.146 422.88,468.98 404.5,474.5C 383.767,476.008 363.101,478.175 342.5,481C 331.677,483.729 321.01,486.896 310.5,490.5C 289.986,489.499 271.986,482.332 256.5,469C 254.885,468.938 253.552,468.771 252.5,468.5C 252.5,467.833 252.833,467.5 253.5,467.5C 255.033,465.366 255.7,462.866 255.5,460C 255.027,456.481 254.86,452.981 255,449.5C 255.839,448.376 257.006,447.709 258.5,447.5C 292.505,454.358 326.839,456.858 361.5,455C 386.054,453.611 409.721,448.278 432.5,439C 457.282,427.447 480.282,413.113 501.5,396C 525.685,375.313 548.685,353.479 570.5,330.5 Z"/></g>
<g><path style="opacity:1" fill="#e2af00" d="M 595.5,267.5 C 596.872,268.512 598.205,269.512 599.5,270.5C 599.499,278.517 599.166,286.517 598.5,294.5C 597.629,297.003 596.963,299.67 596.5,302.5C 588.7,316.749 579.867,330.416 570,343.5C 557.074,367.031 542.407,389.365 526,410.5C 494.232,448.033 453.732,469.367 404.5,474.5C 422.88,468.98 440.88,462.146 458.5,454C 502.761,426.406 538.261,390.239 565,345.5C 566.866,340.449 568.699,335.449 570.5,330.5C 578.387,313.393 585.721,296.06 592.5,278.5C 593.344,274.789 594.344,271.123 595.5,267.5 Z"/></g>
<g><path style="opacity:1" fill="#e4b800" d="M 654.5,282.5 C 655.609,282.557 656.609,282.89 657.5,283.5C 659.955,288.583 662.122,293.916 664,299.5C 669.319,309.468 674.652,319.468 680,329.5C 681.974,335.062 683.474,340.729 684.5,346.5C 685.797,357.23 688.631,367.563 693,377.5C 719.643,481.024 685.143,555.857 589.5,602C 572.414,609.195 555.081,615.695 537.5,621.5C 534.465,620.266 531.465,620.266 528.5,621.5C 528.574,619.589 529.574,618.422 531.5,618C 566.398,605.727 598.064,588.061 626.5,565C 665.279,532.952 687.446,491.785 693,441.5C 697.864,410.118 693.531,380.118 680,351.5C 671.31,336.103 662.143,321.103 652.5,306.5C 652.354,302.613 651.687,298.946 650.5,295.5C 650.457,291.107 650.291,286.774 650,282.5C 651.616,283.801 653.116,283.801 654.5,282.5 Z"/></g>
<g><path style="opacity:1" fill="#644004" d="M 252.5,435.5 C 254.828,437.166 255.828,439.499 255.5,442.5C 253.716,450.698 253.05,459.031 253.5,467.5C 252.833,467.5 252.5,467.833 252.5,468.5C 251.609,469.11 250.609,469.443 249.5,469.5C 246.832,468.543 245.332,466.543 245,463.5C 243.726,454.845 244.726,446.511 248,438.5C 249.129,436.859 250.629,435.859 252.5,435.5 Z"/></g>
<g><path style="opacity:1" fill="#ecb703" d="M 252.5,468.5 C 253.552,468.771 254.885,468.938 256.5,469C 271.986,482.332 289.986,489.499 310.5,490.5C 304.205,494.145 297.871,497.478 291.5,500.5C 290.833,501.833 289.833,502.833 288.5,503.5C 270.329,497.941 257.329,486.607 249.5,469.5C 250.609,469.443 251.609,469.11 252.5,468.5 Z"/></g>
<g><path style="opacity:1" fill="#fedb1d" d="M 406.5,587.5 C 462.922,589.983 516.255,578.483 566.5,553C 606.841,530.656 634.008,497.489 648,453.5C 657.763,423.951 661.929,393.618 660.5,362.5C 661.735,362.279 662.735,361.612 663.5,360.5C 666.607,363.665 666.94,366.832 664.5,370C 665.364,371.137 666.364,372.47 667.5,374C 666.529,375.204 665.529,375.704 664.5,375.5C 665.313,376.814 666.313,377.981 667.5,379C 665.219,380.851 665.219,382.518 667.5,384C 664.833,385.667 664.833,387.333 667.5,389C 664.904,390.797 665.237,392.131 668.5,393C 668.848,395.055 668.181,397.055 666.5,399C 667.167,399.667 667.833,400.333 668.5,401C 666.845,402.444 666.178,404.278 666.5,406.5C 662.551,406.693 662.551,407.193 666.5,408C 667.059,408.725 667.392,409.558 667.5,410.5C 666.574,412.652 665.574,414.819 664.5,417C 668.673,419.504 668.34,421.171 663.5,422C 664.5,422.333 665.5,422.667 666.5,423C 663.715,423.559 661.382,424.892 659.5,427C 662.611,428.378 663.611,430.544 662.5,433.5C 664.854,435.122 664.854,436.622 662.5,438C 664.301,438.317 664.634,438.984 663.5,440C 662.256,440.456 661.423,439.956 661,438.5C 660.578,440.355 660.078,442.189 659.5,444C 660.357,445.968 661.357,447.968 662.5,450C 660.964,452.714 659.63,455.547 658.5,458.5C 658.977,459.478 659.643,460.311 660.5,461C 659.413,464.212 657.413,466.545 654.5,468C 655.5,468.333 656.5,468.667 657.5,469C 656.167,470 654.833,471 653.5,472C 654.022,472.561 654.355,473.228 654.5,474C 652.612,475.394 651.279,477.227 650.5,479.5C 651.641,480.425 651.641,481.259 650.5,482C 651.744,482.456 652.577,481.956 653,480.5C 652.787,483.407 651.287,485.574 648.5,487C 649.938,487.219 651.271,487.719 652.5,488.5C 651.609,489.59 650.609,489.59 649.5,488.5C 648.3,489.531 646.966,490.365 645.5,491C 647.211,492.133 647.711,493.633 647,495.5C 646.667,495.167 646.333,494.833 646,494.5C 645.667,495.833 645.333,497.167 645,498.5C 644.581,497.328 643.915,496.328 643,495.5C 642.727,497.101 642.227,498.601 641.5,500C 643.864,501.012 645.198,502.345 645.5,504C 643.605,504.217 641.605,505.05 639.5,506.5C 640.55,508.102 639.883,508.935 637.5,509C 638.833,509.667 638.833,510.333 637.5,511C 639.878,511.974 639.544,512.641 636.5,513C 634.875,513.853 634.542,514.853 635.5,516C 634.167,516.333 632.833,516.667 631.5,517C 632.014,519.415 633.014,520.749 634.5,521C 632.414,527.089 628.081,531.422 621.5,534C 622.517,535.049 622.684,536.216 622,537.5C 621.259,538.641 620.425,538.641 619.5,537.5C 619.557,541.857 617.724,542.524 614,539.5C 611.101,540.874 610.934,542.374 613.5,544C 611.741,545.008 610.574,546.508 610,548.5C 608.184,546.559 606.184,545.892 604,546.5C 603.626,547.416 603.126,548.25 602.5,549C 604.616,550.171 605.282,551.671 604.5,553.5C 603.667,552.5 602.833,551.5 602,550.5C 600.989,551.337 599.822,551.67 598.5,551.5C 598.657,552.873 598.49,554.207 598,555.5C 596.506,554.253 595.006,554.253 593.5,555.5C 591.789,558.255 589.622,560.589 587,562.5C 586.383,563.449 586.549,564.282 587.5,565C 584.3,564.347 582.634,565.847 582.5,569.5C 580.599,569.433 578.766,569.767 577,570.5C 575.315,572.948 573.315,574.282 571,574.5C 570.333,573.833 569.667,573.167 569,572.5C 568.798,574.256 568.298,575.922 567.5,577.5C 566.158,576.098 565.324,576.431 565,578.5C 564.667,578.167 564.333,577.833 564,577.5C 563.333,578.833 562.333,579.833 561,580.5C 560,580.5 559,580.5 558,580.5C 556.333,581.5 555,582.833 554,584.5C 553.333,583.167 552.667,583.167 552,584.5C 551.667,583.833 551.333,583.167 551,582.5C 550.71,584.044 550.044,585.377 549,586.5C 548.667,586.167 548.333,585.833 548,585.5C 546.638,586.925 545.138,587.758 543.5,588C 544.28,589.073 544.113,590.24 543,591.5C 542.586,591.043 542.086,590.709 541.5,590.5C 533.82,593.866 525.987,596.866 518,599.5C 515.302,598.499 512.802,598.999 510.5,601C 502.659,602.364 494.826,602.53 487,601.5C 483.711,604.301 480.378,604.635 477,602.5C 475.887,603.711 474.72,603.711 473.5,602.5C 472.808,603.025 472.308,603.692 472,604.5C 469.333,603.167 466.667,603.167 464,604.5C 463.261,603.426 462.261,602.759 461,602.5C 459.85,603.424 458.85,603.424 458,602.5C 457.667,603.167 457.333,603.833 457,604.5C 453.984,602.528 450.817,602.195 447.5,603.5C 443.81,602.806 440.143,601.972 436.5,601C 433.952,598.514 430.952,598.347 427.5,600.5C 421.051,598.407 414.551,596.407 408,594.5C 403.427,592.001 403.927,590.501 409.5,590C 413.833,589.667 418.167,589.333 422.5,589C 416.984,588.827 411.651,588.327 406.5,587.5 Z"/></g>
<g><path style="opacity:1" fill="#fed90e" d="M 303.5,522.5 C 303.5,519.5 303.5,516.5 303.5,513.5C 336.153,511.223 368.82,509.056 401.5,507C 436.917,503.562 471.251,495.562 504.5,483C 533.307,469.195 556.141,448.695 573,421.5C 580.134,408.231 586.967,394.897 593.5,381.5C 594.363,380.537 595.03,380.537 595.5,381.5C 595.167,383.5 594.833,385.5 594.5,387.5C 595.025,388.192 595.692,388.692 596.5,389C 595.167,390 595.167,391 596.5,392C 594.473,393.396 594.14,395.062 595.5,397C 592.207,397.255 591.04,398.755 592,401.5C 590.951,400.483 589.784,400.316 588.5,401C 589.669,403.007 590.335,405.173 590.5,407.5C 586.551,407.693 586.551,408.193 590.5,409C 588.342,410.312 588.009,411.978 589.5,414C 587.996,415.337 586.996,417.004 586.5,419C 586.833,419.333 587.167,419.667 587.5,420C 584.833,420.667 584.833,421.333 587.5,422C 585.699,422.317 585.366,422.984 586.5,424C 585.54,425.419 584.707,426.919 584,428.5C 583.282,427.549 582.449,427.383 581.5,428C 582.833,429.84 582.666,430.34 581,429.5C 580.5,431.333 579.333,432.5 577.5,433C 578.308,433.308 578.975,433.808 579.5,434.5C 578.754,435.736 578.421,437.07 578.5,438.5C 577.022,438.238 575.689,438.571 574.5,439.5C 574.709,440.086 575.043,440.586 575.5,441C 574.417,443.165 573.084,445.165 571.5,447C 571.645,447.772 571.978,448.439 572.5,449C 570.028,450.093 568.028,451.76 566.5,454C 567.079,455.908 567.079,457.575 566.5,459C 564.913,459.862 563.246,460.529 561.5,461C 564.277,463.173 564.11,463.673 561,462.5C 560.487,464.521 559.32,466.021 557.5,467C 557.833,467.333 558.167,467.667 558.5,468C 556.259,467.729 554.259,468.729 552.5,471C 552.211,474.988 549.878,477.654 545.5,479C 545.833,479.333 546.167,479.667 546.5,480C 544.823,481.995 543.323,484.161 542,486.5C 541.667,485.833 541.333,485.167 541,484.5C 540.309,486.891 539.309,486.891 538,484.5C 535.651,486.744 536.151,487.911 539.5,488C 534.191,491.901 528.691,494.734 523,496.5C 522.033,497.678 521.533,499.011 521.5,500.5C 516.424,501.877 511.924,504.211 508,507.5C 507,507.5 506,507.5 505,507.5C 504.333,510.167 503.667,510.167 503,507.5C 502,508.833 501,510.167 500,511.5C 499.439,510.978 498.772,510.645 498,510.5C 495.768,511.941 493.768,513.608 492,515.5C 491.667,514.833 491.333,514.167 491,513.5C 487.959,514.186 485.625,515.853 484,518.5C 483.667,517.833 483.333,517.167 483,516.5C 480.097,517.069 478.097,518.735 477,521.5C 476,521.167 475,520.833 474,520.5C 473.333,523.167 472.667,523.167 472,520.5C 467.984,522.329 463.651,524.329 459,526.5C 458.333,525.833 457.667,525.167 457,524.5C 454.942,525.109 454.109,526.109 454.5,527.5C 453.808,526.975 453.308,526.308 453,525.5C 450.942,526.109 450.109,527.109 450.5,528.5C 447.781,527.745 445.281,528.411 443,530.5C 438.601,528.723 434.601,529.723 431,533.5C 430.667,532.833 430.333,532.167 430,531.5C 427.993,532.328 425.993,533.328 424,534.5C 422.333,533.167 420.667,533.167 419,534.5C 417.182,532.355 415.682,532.355 414.5,534.5C 412.078,534.255 409.745,534.255 407.5,534.5C 406.808,535.025 406.308,535.692 406,536.5C 405.707,533.046 404.374,532.712 402,535.5C 399.517,534.756 396.851,534.756 394,535.5C 393.667,534.833 393.333,534.167 393,533.5C 391.654,536.249 390.32,536.583 389,534.5C 387.333,537.167 385.667,537.167 384,534.5C 382.216,537.003 380.549,537.003 379,534.5C 378.667,535.167 378.333,535.833 378,536.5C 372.849,534.048 367.849,534.382 363,537.5C 362.5,536.333 361.667,535.5 360.5,535C 361.451,534.282 361.617,533.449 361,532.5C 360.077,533.759 359.243,535.092 358.5,536.5C 359.016,535.242 358.35,534.242 356.5,533.5C 353.893,532.966 351.393,533.633 349,535.5C 348.261,534.426 347.261,533.759 346,533.5C 343.58,535.131 341.58,534.797 340,532.5C 338.667,533.833 337.333,533.833 336,532.5C 335.333,533.167 334.667,533.833 334,534.5C 333.009,533.061 331.676,532.061 330,531.5C 326.667,532.833 323.333,532.833 320,531.5C 317.209,530.438 314.543,529.105 312,527.5C 307.878,529.004 305.045,527.338 303.5,522.5 Z"/></g>
<g><path style="opacity:1" fill="#e7b500" d="M 617.5,279.5 C 619.922,281.04 622.589,282.04 625.5,282.5C 625.292,287.636 625.959,292.636 627.5,297.5C 630.008,314.732 631.008,332.065 630.5,349.5C 624.24,381.203 616.073,412.536 606,443.5C 597.142,465.043 583.975,483.543 566.5,499C 548.778,514.869 528.778,527.202 506.5,536C 473.313,546.714 439.647,555.714 405.5,563C 399.756,564.684 394.089,566.517 388.5,568.5C 384.071,567.887 380.405,569.22 377.5,572.5C 342.9,572.694 314.567,559.694 292.5,533.5C 293.391,532.89 294.391,532.557 295.5,532.5C 305.932,537.35 316.932,541.85 328.5,546C 336.37,548.301 344.37,549.967 352.5,551C 404.603,558.605 454.27,550.939 501.5,528C 548.302,506.198 582.802,472.031 605,425.5C 616.078,395.777 622.411,365.11 624,333.5C 621.648,327.462 618.815,321.796 615.5,316.5C 615.5,313.5 615.5,310.5 615.5,307.5C 615.5,304.833 615.5,302.167 615.5,299.5C 616.677,292.903 617.344,286.237 617.5,279.5 Z"/></g>
<g><path style="opacity:1" fill="#fedf1a" d="M 537.5,653.5 C 536.167,652.167 534.833,652.167 533.5,653.5C 532.5,653.167 531.833,652.5 531.5,651.5C 534.821,649.903 536.988,647.236 538,643.5C 539.569,639.297 540.402,634.964 540.5,630.5C 568.487,627.897 595.821,622.064 622.5,613C 655.503,597.998 680.003,574.165 696,541.5C 725.829,474.817 725.996,408.151 696.5,341.5C 697.404,340.791 697.737,339.791 697.5,338.5C 700.137,337.768 702.637,337.768 705,338.5C 707.758,339.795 710.258,341.461 712.5,343.5C 717.179,351.291 721.179,359.124 724.5,367C 723.655,368.558 724.321,369.558 726.5,370C 726.413,372.537 726.413,375.037 726.5,377.5C 728.805,382.033 729.805,386.699 729.5,391.5C 729.846,392.696 730.346,392.696 731,391.5C 731.457,394.796 732.291,397.963 733.5,401C 732.833,401.333 732.167,401.667 731.5,402C 732.87,403.441 733.87,405.108 734.5,407C 733.105,409.075 733.438,410.908 735.5,412.5C 735.754,419.261 735.754,425.761 735.5,432C 736.167,432.333 736.833,432.667 737.5,433C 736.798,436.466 736.131,439.966 735.5,443.5C 736.025,444.192 736.692,444.692 737.5,445C 736.475,448.271 736.475,451.271 737.5,454C 736.833,455.667 736.167,457.333 735.5,459C 738.167,460.333 738.167,461.667 735.5,463C 736.86,464.938 736.527,466.604 734.5,468C 733.808,473.174 733.808,478.174 734.5,483C 733.213,486.874 731.88,490.707 730.5,494.5C 731.859,496.306 731.525,497.806 729.5,499C 729.745,501.089 729.745,503.089 729.5,505C 728.311,509.348 726.311,513.681 723.5,518C 723.833,519 724.167,520 724.5,521C 721.997,524.587 719.664,528.253 717.5,532C 717.833,532.333 718.167,532.667 718.5,533C 716.167,537.667 713.833,542.333 711.5,547C 712.34,548.666 711.84,548.833 710,547.5C 709.178,552.802 706.678,557.635 702.5,562C 703.552,563.716 702.886,564.716 700.5,565C 700.833,565.333 701.167,565.667 701.5,566C 699.833,568.333 698.167,570.667 696.5,573C 696.833,573.333 697.167,573.667 697.5,574C 688.328,583.539 679.161,593.706 670,604.5C 669.282,603.549 668.449,603.383 667.5,604C 661.438,609.188 655.104,613.188 648.5,616C 649.34,617.666 648.84,617.833 647,616.5C 641.226,622.168 634.559,625.502 627,626.5C 623.456,628.267 620.123,630.267 617,632.5C 614.519,631.978 612.186,631.978 610,632.5C 608.055,633.863 605.888,634.697 603.5,635C 604.696,635.654 604.696,636.154 603.5,636.5C 601.549,635.744 599.716,635.411 598,635.5C 597.612,636.428 596.945,637.095 596,637.5C 592.027,637.756 588.361,637.756 585,637.5C 584.333,638.167 583.667,638.833 583,639.5C 580.768,638.813 578.602,638.479 576.5,638.5C 573.252,641.119 570.085,641.119 567,638.5C 566.581,639.672 565.915,640.672 565,641.5C 563.34,641.676 561.674,641.009 560,639.5C 559.5,640 559,640.5 558.5,641C 554.234,641.097 550.068,641.263 546,641.5C 545.311,640.643 544.478,639.977 543.5,639.5C 542.24,641.353 542.24,643.186 543.5,645C 542.328,645.419 541.328,646.085 540.5,647C 540.5,648.333 540.5,649.667 540.5,651C 539.627,652.045 538.627,652.878 537.5,653.5 Z"/></g>
<g><path style="opacity:1" fill="#6a4901" d="M 291.5,500.5 C 295.273,499.822 298.106,501.156 300,504.5C 303.113,512.456 303.28,520.456 300.5,528.5C 298.833,529.833 297.167,531.167 295.5,532.5C 294.391,532.557 293.391,532.89 292.5,533.5C 288.743,532.233 286.576,529.566 286,525.5C 284.898,517.904 285.731,510.57 288.5,503.5C 289.833,502.833 290.833,501.833 291.5,500.5 Z"/></g>
<g><path style="opacity:1" fill="#feee3c" d="M 693.5,336.5 C 694.737,337.965 695.737,339.632 696.5,341.5C 725.996,408.151 725.829,474.817 696,541.5C 680.003,574.165 655.503,597.998 622.5,613C 595.821,622.064 568.487,627.897 540.5,630.5C 540.086,627.257 539.086,624.257 537.5,621.5C 555.081,615.695 572.414,609.195 589.5,602C 685.143,555.857 719.643,481.024 693,377.5C 688.631,367.563 685.797,357.23 684.5,346.5C 685.469,344.337 686.302,342.004 687,339.5C 689.294,338.578 691.461,337.578 693.5,336.5 Z"/></g>
<g><path style="opacity:1" fill="#feee3e" d="M 656.5,333.5 C 657.326,337.136 657.992,340.803 658.5,344.5C 659.602,350.448 660.269,356.448 660.5,362.5C 661.929,393.618 657.763,423.951 648,453.5C 634.008,497.489 606.841,530.656 566.5,553C 516.255,578.483 462.922,589.983 406.5,587.5C 401.786,587.647 397.119,587.314 392.5,586.5C 393.05,580.038 391.717,574.038 388.5,568.5C 394.089,566.517 399.756,564.684 405.5,563C 439.647,555.714 473.313,546.714 506.5,536C 528.778,527.202 548.778,514.869 566.5,499C 583.975,483.543 597.142,465.043 606,443.5C 616.073,412.536 624.24,381.203 630.5,349.5C 630.369,350.239 630.536,350.906 631,351.5C 633.167,348 635.333,344.5 637.5,341C 638.993,339.632 640.493,339.465 642,340.5C 646.709,337.055 651.542,334.722 656.5,333.5 Z"/></g>
<g><path style="opacity:1" fill="#fed610" d="M 386.5,601.5 C 388.752,601.084 390.252,599.751 391,597.5C 392.237,593.94 392.737,590.273 392.5,586.5C 397.119,587.314 401.786,587.647 406.5,587.5C 411.651,588.327 416.984,588.827 422.5,589C 418.167,589.333 413.833,589.667 409.5,590C 403.927,590.501 403.427,592.001 408,594.5C 414.551,596.407 421.051,598.407 427.5,600.5C 430.952,598.347 433.952,598.514 436.5,601C 440.143,601.972 443.81,602.806 447.5,603.5C 450.817,602.195 453.984,602.528 457,604.5C 457.333,603.833 457.667,603.167 458,602.5C 458.85,603.424 459.85,603.424 461,602.5C 462.261,602.759 463.261,603.426 464,604.5C 466.667,603.167 469.333,603.167 472,604.5C 472.308,603.692 472.808,603.025 473.5,602.5C 474.72,603.711 475.887,603.711 477,602.5C 480.378,604.635 483.711,604.301 487,601.5C 494.826,602.53 502.659,602.364 510.5,601C 512.802,598.999 515.302,598.499 518,599.5C 525.987,596.866 533.82,593.866 541.5,590.5C 542.086,590.709 542.586,591.043 543,591.5C 544.113,590.24 544.28,589.073 543.5,588C 545.138,587.758 546.638,586.925 548,585.5C 548.333,585.833 548.667,586.167 549,586.5C 550.044,585.377 550.71,584.044 551,582.5C 551.333,583.167 551.667,583.833 552,584.5C 552.667,583.167 553.333,583.167 554,584.5C 555,582.833 556.333,581.5 558,580.5C 559,580.5 560,580.5 561,580.5C 562.333,579.833 563.333,578.833 564,577.5C 564.333,577.833 564.667,578.167 565,578.5C 565.324,576.431 566.158,576.098 567.5,577.5C 568.298,575.922 568.798,574.256 569,572.5C 569.667,573.167 570.333,573.833 571,574.5C 573.315,574.282 575.315,572.948 577,570.5C 578.766,569.767 580.599,569.433 582.5,569.5C 582.634,565.847 584.3,564.347 587.5,565C 586.549,564.282 586.383,563.449 587,562.5C 589.622,560.589 591.789,558.255 593.5,555.5C 595.006,554.253 596.506,554.253 598,555.5C 598.49,554.207 598.657,552.873 598.5,551.5C 599.822,551.67 600.989,551.337 602,550.5C 602.833,551.5 603.667,552.5 604.5,553.5C 605.282,551.671 604.616,550.171 602.5,549C 603.126,548.25 603.626,547.416 604,546.5C 606.184,545.892 608.184,546.559 610,548.5C 610.574,546.508 611.741,545.008 613.5,544C 610.934,542.374 611.101,540.874 614,539.5C 617.724,542.524 619.557,541.857 619.5,537.5C 620.425,538.641 621.259,538.641 622,537.5C 622.684,536.216 622.517,535.049 621.5,534C 628.081,531.422 632.414,527.089 634.5,521C 633.014,520.749 632.014,519.415 631.5,517C 632.833,516.667 634.167,516.333 635.5,516C 634.542,514.853 634.875,513.853 636.5,513C 639.544,512.641 639.878,511.974 637.5,511C 638.833,510.333 638.833,509.667 637.5,509C 639.883,508.935 640.55,508.102 639.5,506.5C 641.605,505.05 643.605,504.217 645.5,504C 645.198,502.345 643.864,501.012 641.5,500C 642.227,498.601 642.727,497.101 643,495.5C 643.915,496.328 644.581,497.328 645,498.5C 645.333,497.167 645.667,495.833 646,494.5C 646.333,494.833 646.667,495.167 647,495.5C 647.711,493.633 647.211,492.133 645.5,491C 646.966,490.365 648.3,489.531 649.5,488.5C 650.609,489.59 651.609,489.59 652.5,488.5C 651.271,487.719 649.938,487.219 648.5,487C 651.287,485.574 652.787,483.407 653,480.5C 652.577,481.956 651.744,482.456 650.5,482C 651.641,481.259 651.641,480.425 650.5,479.5C 651.279,477.227 652.612,475.394 654.5,474C 654.355,473.228 654.022,472.561 653.5,472C 654.833,471 656.167,470 657.5,469C 656.5,468.667 655.5,468.333 654.5,468C 657.413,466.545 659.413,464.212 660.5,461C 659.643,460.311 658.977,459.478 658.5,458.5C 659.63,455.547 660.964,452.714 662.5,450C 661.357,447.968 660.357,445.968 659.5,444C 660.078,442.189 660.578,440.355 661,438.5C 661.423,439.956 662.256,440.456 663.5,440C 664.634,438.984 664.301,438.317 662.5,438C 664.854,436.622 664.854,435.122 662.5,433.5C 663.611,430.544 662.611,428.378 659.5,427C 661.382,424.892 663.715,423.559 666.5,423C 665.5,422.667 664.5,422.333 663.5,422C 668.34,421.171 668.673,419.504 664.5,417C 665.574,414.819 666.574,412.652 667.5,410.5C 667.392,409.558 667.059,408.725 666.5,408C 662.551,407.193 662.551,406.693 666.5,406.5C 666.178,404.278 666.845,402.444 668.5,401C 667.833,400.333 667.167,399.667 666.5,399C 668.181,397.055 668.848,395.055 668.5,393C 665.237,392.131 664.904,390.797 667.5,389C 664.833,387.333 664.833,385.667 667.5,384C 665.219,382.518 665.219,380.851 667.5,379C 666.313,377.981 665.313,376.814 664.5,375.5C 665.529,375.704 666.529,375.204 667.5,374C 666.364,372.47 665.364,371.137 664.5,370C 666.94,366.832 666.607,363.665 663.5,360.5C 662.735,361.612 661.735,362.279 660.5,362.5C 660.269,356.448 659.602,350.448 658.5,344.5C 659.165,342.631 659.831,340.631 660.5,338.5C 661.429,339.689 661.762,341.022 661.5,342.5C 662.552,342.351 663.552,342.517 664.5,343C 667.128,346.246 669.295,350.412 671,355.5C 671.333,355.167 671.667,354.833 672,354.5C 672.272,359.038 673.438,363.205 675.5,367C 676.715,371.072 676.715,374.738 675.5,378C 676.357,378.689 677.023,379.522 677.5,380.5C 676.691,382.792 676.357,384.959 676.5,387C 677.167,387.333 677.833,387.667 678.5,388C 676.285,389.391 676.285,391.057 678.5,393C 677.183,402.992 677.183,412.992 678.5,423C 677.833,423.667 677.167,424.333 676.5,425C 676.833,427.333 677.167,429.667 677.5,432C 676.332,438.148 674.999,443.982 673.5,449.5C 674.212,453.116 673.545,456.616 671.5,460C 672.167,461.667 672.833,463.333 673.5,465C 671.43,466.463 670.097,468.463 669.5,471C 669.684,473.39 669.684,475.724 669.5,478C 668.833,478.333 668.167,478.667 667.5,479C 667.5,480.667 667.5,482.333 667.5,484C 663.054,492.154 659.054,500.154 655.5,508C 655.833,508.333 656.167,508.667 656.5,509C 654.321,509.442 653.655,510.442 654.5,512C 652.305,515.128 649.972,518.128 647.5,521C 647.833,521.333 648.167,521.667 648.5,522C 647.552,522.483 646.552,522.649 645.5,522.5C 645.392,524.783 644.559,526.783 643,528.5C 637.704,534.942 632.371,540.608 627,545.5C 622.714,551.45 617.214,555.95 610.5,559C 611.167,559.333 611.833,559.667 612.5,560C 611.747,561.487 610.914,561.654 610,560.5C 607.415,562.758 604.582,564.591 601.5,566C 600.005,568.828 597.839,570.995 595,572.5C 593.85,573.424 592.85,573.424 592,572.5C 590.71,574.792 589.043,576.792 587,578.5C 586.282,577.549 585.449,577.383 584.5,578C 581.938,580.413 578.938,582.08 575.5,583C 574.874,583.75 574.374,584.584 574,585.5C 572.333,585.5 570.667,585.5 569,585.5C 559.378,591.829 549.045,595.829 538,597.5C 537.5,598.667 536.667,599.5 535.5,600C 532.333,601.234 529.166,602.401 526,603.5C 524.984,602.366 524.317,602.699 524,604.5C 521.094,603.588 518.427,604.254 516,606.5C 514.602,605.949 513.268,605.616 512,605.5C 511.311,606.357 510.478,607.023 509.5,607.5C 508.197,606.282 507.197,606.615 506.5,608.5C 500.997,609.235 495.33,609.235 489.5,608.5C 487.941,609.074 486.441,609.74 485,610.5C 482.768,609.813 480.602,609.479 478.5,609.5C 477.833,610.167 477.167,610.833 476.5,611.5C 475.28,610.289 474.113,610.289 473,611.5C 472.692,610.692 472.192,610.025 471.5,609.5C 469.139,610.021 466.806,610.354 464.5,610.5C 463.318,608.355 461.818,608.355 460,610.5C 453.684,610.345 447.018,609.345 440,607.5C 439.228,607.645 438.561,607.978 438,608.5C 435.267,606.895 432.267,605.895 429,605.5C 428.667,605.833 428.333,606.167 428,606.5C 420.374,604.094 413.041,601.761 406,599.5C 405.667,599.833 405.333,600.167 405,600.5C 404.558,598.321 403.558,597.655 402,598.5C 398.563,596.296 396.396,593.63 395.5,590.5C 393.883,593.28 392.716,596.28 392,599.5C 390.622,601.213 388.955,602.547 387,603.5C 386.536,602.906 386.369,602.239 386.5,601.5 Z"/></g>
<g><path style="opacity:1" fill="#6b4b02" d="M 388.5,568.5 C 391.717,574.038 393.05,580.038 392.5,586.5C 392.737,590.273 392.237,593.94 391,597.5C 390.252,599.751 388.752,601.084 386.5,601.5C 385.5,601.5 384.5,601.5 383.5,601.5C 376.511,595.028 374.011,587.028 376,577.5C 376.608,575.846 377.108,574.179 377.5,572.5C 380.405,569.22 384.071,567.887 388.5,568.5 Z"/></g>
<g><path style="opacity:1" fill="#6a4901" d="M 537.5,621.5 C 539.086,624.257 540.086,627.257 540.5,630.5C 540.402,634.964 539.569,639.297 538,643.5C 536.988,647.236 534.821,649.903 531.5,651.5C 525.127,647.76 522.127,642.093 522.5,634.5C 522.56,632.079 522.893,629.746 523.5,627.5C 524.443,624.891 526.11,622.891 528.5,621.5C 531.465,620.266 534.465,620.266 537.5,621.5 Z"/></g>
</svg>
